# xmcd CD database file
#
# Track frame offsets:
#	150
#	18073
#	32886
#	49591
#	65941
#
# Disc length: 1199 seconds
#
# Revision: 0
# Processed by: cddbd v1.5.2PL0 Copyright (c) Steve Scherf et al.
# Submitted via: CDex 1.70beta2
#
DISCID=3c04ad05
DTITLE=Zänph - Das Wurst Käse Szenario
DYEAR=2008
DGENRE=Blues
TTITLE0=Alleen voor jou
TTITLE1=If I needed someone
TTITLE2=Je veux nager
TTITLE3=Back of my hand
TTITLE4=De nazit
EXTD=YEAR: 2008
EXTT0=
EXTT1=
EXTT2=
EXTT3=
EXTT4=
PLAYORDER=
